<svg xmlns="http://www.w3.org/2000/svg" viewBox="0 0 69.83 69.83"><defs><style>.cls-1{width: 50px; height: 50px; fill:none;stroke:#484751;stroke-linecap:square;stroke-miterlimit:10;stroke-width:2.63px;}</style></defs><title>자산 2</title><g id="레이어_2" data-name="레이어 2"><g id="Icons"><g id="_1" data-name="1"><polyline class="cls-1" points="29.95 55.34 29.85 62.63 26.96 65.53 22.84 56.47"/><polyline class="cls-1" points="19.54 39.82 7.2 39.98 4.31 42.87 9.2 45.1"/><path class="cls-1" d="M38.91,12.52,29.11,11,31.3,8.8a1.76,1.76,0,0,0,0-2.49L30.06,5.06a1.77,1.77,0,0,0-2.49,0L22.65,10,5.29,7.28,2.18,10.39,32,26.54"/><path class="cls-1" d="M56.5,25.76l2.34,15L61,38.53a1.76,1.76,0,0,1,2.49,0l1.25,1.24a1.77,1.77,0,0,1,0,2.49l-4.93,4.92,2.71,17.36-3.11,3.11L45.57,42.07"/><path class="cls-1" d="M20.12,58.06l-8.35-8.35L53.92,4.58a10.21,10.21,0,0,1,7.3-3.23l2.77,0a4.45,4.45,0,0,1,4.52,4.52l0,2.77a10.21,10.21,0,0,1-3.23,7.3Z"/><line class="cls-1" x1="20.47" y1="49.36" x2="13.26" y2="56.57"/><line class="cls-1" x1="57.67" y1="8.22" x2="61.61" y2="12.16"/><line class="cls-1" x1="49.37" y1="60.62" x2="44.86" y2="65.14"/><line class="cls-1" x1="46.27" y1="55.02" x2="35.84" y2="65.45"/><line class="cls-1" x1="52.41" y1="66.3" x2="50.85" y2="67.86"/><line class="cls-1" x1="9.21" y1="20.46" x2="4.7" y2="24.97"/><line class="cls-1" x1="14.81" y1="23.57" x2="4.38" y2="33.99"/><line class="cls-1" x1="3.53" y1="17.42" x2="1.97" y2="18.98"/></g></g></g></svg>