<svg xmlns="http://www.w3.org/2000/svg" viewBox="0 0 73.04 66.12"><defs><style>.cls-1{fill:none;stroke:#484751;stroke-linecap:square;stroke-miterlimit:10;stroke-width:2.63px;}</style></defs><title>자산 6</title><g id="레이어_2" data-name="레이어 2"><g id="Icons"><g id="_3" data-name="3"><rect class="cls-1" x="1.32" y="13.7" width="70.41" height="47.58" rx="4.09"/><path class="cls-1" d="M29,1.32H44.07A2.68,2.68,0,0,1,46.74,4v9.7a0,0,0,0,1,0,0H26.3a0,0,0,0,1,0,0V4A2.68,2.68,0,0,1,29,1.32Z"/><line class="cls-1" x1="26.3" y1="6.53" x2="41.85" y2="6.53"/><polyline class="cls-1" points="20.43 30.22 20.43 61.27 14.18 61.27 14.18 30.22"/><polyline class="cls-1" points="14.18 23.32 14.18 13.69 20.43 13.69"/><line class="cls-1" x1="20.43" y1="23.32" x2="20.43" y2="19.03"/><polyline class="cls-1" points="52.6 23.32 52.6 13.69 58.87 13.69 58.87 23.32"/><line class="cls-1" x1="58.86" y1="55.66" x2="58.86" y2="30.22"/><polyline class="cls-1" points="52.6 30.22 52.6 61.27 58.87 61.27"/><rect class="cls-1" x="10.76" y="23.32" width="13.1" height="6.9"/><rect class="cls-1" x="49.19" y="23.32" width="13.1" height="6.9"/><rect class="cls-1" x="26.99" y="48.02" width="9.17" height="5.69" transform="translate(-15.34 13.67) rotate(-19.76)"/><rect class="cls-1" x="30.93" y="21.73" width="7.39" height="6.65" transform="translate(13.99 -12.37) rotate(25.24)"/><path class="cls-1" d="M45.65,38.25a3.82,3.82,0,1,1-3.82-3.82A3.82,3.82,0,0,1,45.65,38.25Z"/><line class="cls-1" x1="7.54" y1="61.27" x2="7.54" y2="64.8"/><line class="cls-1" x1="65.51" y1="61.27" x2="65.51" y2="64.8"/></g></g></g></svg>