<svg xmlns="http://www.w3.org/2000/svg" viewBox="0 0 78.84 76.27"><defs><style>.cls-1{fill:none;stroke:#484751;stroke-linecap:square;stroke-miterlimit:10;stroke-width:2.63px;}</style></defs><title>자산 5</title><g id="레이어_2" data-name="레이어 2"><g id="Icons"><g id="_8" data-name="8"><polyline class="cls-1" points="20.71 32.63 20.71 74.95 1.32 74.95 1.32 32.63 15.36 32.63"/><polyline class="cls-1" points="58.13 32.63 58.13 74.95 77.53 74.95 77.53 32.63 63.48 32.63"/><polyline class="cls-1" points="52.17 13.92 58.13 13.92 58.13 74.95 20.71 74.95 20.71 13.92 26.67 13.92"/><line class="cls-1" x1="7.91" y1="40.68" x2="14.12" y2="40.68"/><line class="cls-1" x1="7.91" y1="47.86" x2="14.12" y2="47.86"/><line class="cls-1" x1="7.91" y1="55.04" x2="14.12" y2="55.04"/><line class="cls-1" x1="7.91" y1="62.22" x2="14.12" y2="62.22"/><line class="cls-1" x1="64.72" y1="40.68" x2="70.94" y2="40.68"/><line class="cls-1" x1="28.17" y1="28.02" x2="30.96" y2="28.02"/><line class="cls-1" x1="28.17" y1="34.45" x2="30.96" y2="34.45"/><line class="cls-1" x1="28.17" y1="40.87" x2="30.96" y2="40.87"/><line class="cls-1" x1="28.17" y1="47.29" x2="30.96" y2="47.29"/><line class="cls-1" x1="28.17" y1="53.72" x2="30.96" y2="53.72"/><line class="cls-1" x1="38.03" y1="28.02" x2="40.82" y2="28.02"/><line class="cls-1" x1="38.03" y1="34.45" x2="40.82" y2="34.45"/><line class="cls-1" x1="38.03" y1="40.87" x2="40.82" y2="40.87"/><line class="cls-1" x1="38.03" y1="47.29" x2="40.82" y2="47.29"/><line class="cls-1" x1="38.03" y1="53.72" x2="40.82" y2="53.72"/><line class="cls-1" x1="47.89" y1="28.02" x2="50.68" y2="28.02"/><line class="cls-1" x1="47.89" y1="34.45" x2="50.68" y2="34.45"/><line class="cls-1" x1="47.89" y1="40.87" x2="50.68" y2="40.87"/><line class="cls-1" x1="47.89" y1="47.29" x2="50.68" y2="47.29"/><line class="cls-1" x1="47.89" y1="53.72" x2="50.68" y2="53.72"/><line class="cls-1" x1="64.72" y1="47.86" x2="70.94" y2="47.86"/><line class="cls-1" x1="64.72" y1="55.04" x2="70.94" y2="55.04"/><line class="cls-1" x1="64.72" y1="62.22" x2="70.94" y2="62.22"/><polyline class="cls-1" points="44.52 70.4 44.52 61.84 34.33 61.84 34.33 70.4"/><rect class="cls-1" x="31.67" y="6.17" width="15.5" height="15.5"/><line class="cls-1" x1="36.95" y1="11.54" x2="36.95" y2="16.29"/><line class="cls-1" x1="41.89" y1="11.54" x2="41.89" y2="16.29"/><line class="cls-1" x1="36.95" y1="13.92" x2="41.64" y2="13.92"/><line class="cls-1" x1="39.42" y1="6.17" x2="39.42" y2="1.32"/><line class="cls-1" x1="11.01" y1="32.63" x2="11.01" y2="28.45"/><line class="cls-1" x1="67.83" y1="32.63" x2="67.83" y2="28.45"/></g></g></g></svg>