<svg xmlns="http://www.w3.org/2000/svg" viewBox="0 0 67.92 78.83"><defs><style>.cls-1{fill:none;stroke:#484751;stroke-linecap:square;stroke-miterlimit:10;stroke-width:2.63px;}</style></defs><title>자산 7</title><g id="레이어_2" data-name="레이어 2"><g id="Icons"><g id="_17" data-name="17"><line class="cls-1" x1="37.32" y1="39.7" x2="38.85" y2="43.69"/><line class="cls-1" x1="21.58" y1="43.69" x2="23.54" y2="35.71"/><path class="cls-1" d="M42.62,17.94c0,10-5.55,19.54-12.4,19.54S17.82,28,17.82,17.94"/><path class="cls-1" d="M43,15.75s2.44-6.13-.39-9.67S30.78-1,21.89,3.24c-9.43,4.47-4.81,12.59-4.81,12.59,12.83,3.71,16.5-4.09,20.27-2.85"/><path class="cls-1" d="M48.88,44.51a15.36,15.36,0,0,0-5-.82H38.85a9.32,9.32,0,0,1-17.27,0H16.51A15.19,15.19,0,0,0,1.32,58.88V77.51h57.8V58.88a15.16,15.16,0,0,0-3.86-10.12"/><line class="cls-1" x1="49.8" y1="60.6" x2="49.8" y2="31.05"/><polygon class="cls-1" points="65.61 36.82 49.8 36.82 49.8 26.06 65.61 26.06 62.42 31.44 65.61 36.82"/><line class="cls-1" x1="43.26" y1="45.15" x2="35.73" y2="63.6"/><line class="cls-1" x1="24.93" y1="63.6" x2="17.17" y2="45.15"/><rect class="cls-1" x="23.12" y="63.6" width="14.19" height="7.53"/></g></g></g></svg>