<svg xmlns="http://www.w3.org/2000/svg" viewBox="0 0 85.09 55.13"><defs><style>.cls-1{fill:none;stroke:#484751;stroke-linecap:square;stroke-miterlimit:10;stroke-width:2.63px;}</style></defs><title>자산 3</title><g id="레이어_2" data-name="레이어 2"><g id="Icons"><g id="_10" data-name="10"><circle class="cls-1" cx="43.95" cy="27.57" r="18.56" transform="translate(-6.62 39.15) rotate(-45)"/><path class="cls-1" d="M34.43,24.52A10,10,0,0,1,41.14,18"/><circle class="cls-1" cx="43.95" cy="27.57" r="26.25"/><path class="cls-1" d="M79,32.07h4.74V5.35s-4.68.64-6.44,7.31a28.15,28.15,0,0,0,.29,14.67"/><rect class="cls-1" x="78.77" y="32.07" width="5" height="21.75" transform="translate(162.55 85.88) rotate(180)"/><polyline class="cls-1" points="4.41 21.95 4.41 53.82 9.41 53.82 9.41 26.79"/><path class="cls-1" d="M12.5,8.22v9.54A4.2,4.2,0,0,1,8.31,22H5.51a4.19,4.19,0,0,1-4.19-4.19V8.22"/><line class="cls-1" x1="6.91" y1="16.79" x2="6.91" y2="8.22"/></g></g></g></svg>