<svg xmlns="http://www.w3.org/2000/svg" viewBox="0 0 72.12 76.01"><defs><style>.cls-1{fill:none;stroke:#484751;stroke-linecap:square;stroke-miterlimit:10;stroke-width:2.63px;}</style></defs><title>자산 4</title><g id="레이어_2" data-name="레이어 2"><g id="Icons"><g id="_20" data-name="20"><polyline class="cls-1" points="15.68 40.69 15.68 61.43 8.46 61.43 8.46 35.49 16.68 35.49"/><polyline class="cls-1" points="31.67 40.69 31.67 61.43 24.45 61.43 24.45 35.49 32.67 35.49"/><polyline class="cls-1" points="47.67 40.69 47.67 61.43 40.45 61.43 40.45 35.49 48.67 35.49"/><polyline class="cls-1" points="63.66 40.69 63.66 61.43 56.44 61.43 56.44 35.49 62.69 35.49"/><polyline class="cls-1" points="70.8 33.25 70.8 35.49 1.32 35.49 1.32 28.86 70.8 28.86"/><rect class="cls-1" x="6.15" y="61.43" width="59.82" height="6.63"/><polyline class="cls-1" points="70.8 72.64 70.8 74.69 1.32 74.69 1.32 68.06 70.8 68.06"/><polygon class="cls-1" points="36.06 1.73 4.44 28.86 67.68 28.86 36.06 1.73"/><circle class="cls-1" cx="36.06" cy="17.48" r="4.64"/></g></g></g></svg>